<svg xmlns="http://www.w3.org/2000/svg" viewBox="0 0 48 48"><title>10-bank</title><g id="_10-bank" data-name="10-bank"><path d="M35,22a13.056,13.056,0,0,0-2,.17V12.487A2.474,2.474,0,0,0,33.949,10H35a1,1,0,0,0,.426-1.9l-17-8a1,1,0,0,0-.852,0l-17,8A1,1,0,0,0,1,10H2.051A2.474,2.474,0,0,0,3,12.487V25.513a2.453,2.453,0,0,0-.937,2.529A2.493,2.493,0,0,0,0,30.5v1A2.492,2.492,0,0,0,2.477,34H22.051c-.026.331-.051.662-.051,1A13,13,0,1,0,35,22Zm-6,1.479V13h2v9.636A12.873,12.873,0,0,0,29,23.479ZM24.063,28H21.949A2.474,2.474,0,0,0,21,25.513V12.487A2.474,2.474,0,0,0,21.949,10h4.1A2.474,2.474,0,0,0,27,12.487V24.774A13.1,13.1,0,0,0,24.063,28ZM4,27.5a.5.5,0,0,1,.5-.5h3a.5.5,0,0,1,0,1h-3A.5.5,0,0,1,4,27.5ZM7,13V25H5V13ZM9,25.513V12.487A2.474,2.474,0,0,0,9.949,10h4.1A2.474,2.474,0,0,0,15,12.487V25.513A2.474,2.474,0,0,0,14.051,28h-4.1A2.474,2.474,0,0,0,9,25.513ZM17,13h2V25H17Zm3-2.5a.5.5,0,0,1-.5.5h-3a.5.5,0,0,1,0-1h3A.5.5,0,0,1,20,10.5Zm-4,17a.5.5,0,0,1,.5-.5h3a.5.5,0,0,1,0,1h-3A.5.5,0,0,1,16,27.5Zm16-17a.5.5,0,0,1-.5.5h-3a.5.5,0,0,1,0-1h3A.5.5,0,0,1,32,10.5ZM18,2.105,30.526,8H5.474ZM7.5,10a.5.5,0,0,1,0,1h-3a.5.5,0,0,1,0-1ZM2.477,32A.489.489,0,0,1,2,31.5v-1a.489.489,0,0,1,.477-.5H23a12.985,12.985,0,0,0-.64,2ZM35,46A11,11,0,1,1,46,35,11.013,11.013,0,0,1,35,46Z"/><path d="M35,30a2,2,0,0,1,2,2h2a4,4,0,0,0-3-3.858V27H34v1.142A3.992,3.992,0,0,0,35,36a2,2,0,1,1-2,2H31a4,4,0,0,0,3,3.858V43h2V41.858A3.992,3.992,0,0,0,35,34a2,2,0,0,1,0-4Z"/><path d="M42,13v5.586l-1.293-1.293-1.414,1.414,3,3A.974.974,0,0,0,43.7,21.7l.006.006,3-3-1.414-1.414L44,18.586V13a5.006,5.006,0,0,0-5-5H38v2h1A3,3,0,0,1,42,13Z"/><path d="M12,40V38.414l1.293,1.293,1.414-1.414-3-3A.974.974,0,0,0,10.3,35.3l-.006-.006-3,3,1.414,1.414L10,38.414V40a5.006,5.006,0,0,0,5,5h6V43H15A3,3,0,0,1,12,40Z"/></g></svg>