<svg xmlns="http://www.w3.org/2000/svg" viewBox="0 0 48 48"><title>17-money</title><g id="_17-money" data-name="17-money"><path d="M19,36a1,1,0,0,1,1,1h2a3,3,0,0,0-2-2.816V33H18v1.184A2.993,2.993,0,0,0,19,40a1,1,0,1,1-1,1H16a3,3,0,0,0,2,2.816V45h2V43.816A2.993,2.993,0,0,0,19,38a1,1,0,0,1,0-2Z"/><path d="M42,19V1a1,1,0,0,0-1-1H7A1,1,0,0,0,6,1V19a1,1,0,0,0,1,1H23.146a4.038,4.038,0,0,0,1.147,1.707c.49.49.707.731.707,1.293s-.217.8-.707,1.293A4.038,4.038,0,0,0,23.146,26H21a2.974,2.974,0,0,0-1.942.732C17.931,24.013,15.454,21,10,21a1,1,0,0,0-1,1c0,.082.082,6.775,5.591,9.162A8.995,8.995,0,0,0,19,48H36a2.99,2.99,0,0,0,2.78-4.116,2.983,2.983,0,0,0,0-5.768A2.877,2.877,0,0,0,38.816,36H39a3,3,0,0,0,0-6h-.184A2.966,2.966,0,0,0,39,29a3,3,0,0,0-3-3H25.425c.083-.091.173-.184.282-.293a3.48,3.48,0,0,0,0-5.414c-.109-.109-.2-.2-.282-.293H41A1,1,0,0,0,42,19ZM11.09,23.052c5.28.525,6.526,4.849,6.819,6.9C12.629,29.424,11.384,25.1,11.09,23.052ZM12,39a7,7,0,1,1,7,7A7.009,7.009,0,0,1,12,39Zm24,7H24.645a9.08,9.08,0,0,0,1.833-2H36a1,1,0,0,1,0,2Zm2-4H27.475a8.869,8.869,0,0,0,.466-2H38a1,1,0,0,1,0,2Zm-1-5a1,1,0,0,1-1,1H27.941a8.869,8.869,0,0,0-.466-2H36A1,1,0,0,1,37,37Zm3-4a1,1,0,0,1-1,1H26.478a9.08,9.08,0,0,0-1.833-2H39A1,1,0,0,1,40,33Zm-3-4a1,1,0,0,1-1,1H21a1,1,0,0,1,0-2H36A1,1,0,0,1,37,29Zm-.9-11H11.9A5.016,5.016,0,0,0,8,14.1V5.9A5.016,5.016,0,0,0,11.9,2H36.1A5.016,5.016,0,0,0,40,5.9v8.2A5.016,5.016,0,0,0,36.1,18ZM40,3.816A3,3,0,0,1,38.184,2H40ZM9.816,2A3,3,0,0,1,8,3.816V2ZM8,16.184A3,3,0,0,1,9.816,18H8ZM38.184,18A3,3,0,0,1,40,16.184V18Z"/><path d="M24,5a5,5,0,1,0,5,5A5.006,5.006,0,0,0,24,5Zm0,8a3,3,0,1,1,3-3A3,3,0,0,1,24,13Z"/></g></svg>