<svg xmlns="http://www.w3.org/2000/svg" viewBox="0 0 48 48"><title>02-saveing</title><g id="_02-saveing" data-name="02-saveing"><path d="M47.523,34.346a2.85,2.85,0,0,0-3.412-1.167l-8.567,3.2a5.313,5.313,0,0,1-1.57.331C37.829,33.655,39,32.687,39,28.485c0-5.19-3.675-13.876-8.415-17.3A1,1,0,0,0,30,11h0c0-1.216,2.277-6.318,3.9-9.553A1,1,0,0,0,33,0H15a1,1,0,0,0-.895,1.447C15.723,4.681,18,9.783,18,11a1,1,0,0,0-.491.129C11.636,14.439,8,22.2,8,27.5c0,.167.015.333.025.5H3a3,3,0,0,0-3,3V45a3,3,0,0,0,3,3H9a3,3,0,0,0,2.787-1.906l15.4.894c.142.008.283.012.425.012a7.473,7.473,0,0,0,3.273-.759L46.466,38.62A2.979,2.979,0,0,0,47.9,36.746,3.063,3.063,0,0,0,47.523,34.346ZM16.6,2H23V4h2V2h2V4h2V2h2.4c-.759,1.578-1.872,3.987-2.616,6H19.219C18.475,5.987,17.362,3.578,16.6,2Zm3.246,8h8.3A4.581,4.581,0,0,0,28,11H20A4.581,4.581,0,0,0,19.849,10Zm-1.581,3h11.4C33.752,16.165,37,23.958,37,28.485c0,3.275-.5,3.67-4.375,6.741l-1.235.982c-.129-.059-.258-.115-.382-.183a2.67,2.67,0,0,0,.861-2.891,2.6,2.6,0,0,0-3.029-1.752l-4.445.523C23.931,30.72,22.6,29,18.78,29A12.632,12.632,0,0,0,12,30.974,2.994,2.994,0,0,0,10.04,28.2a6.514,6.514,0,0,1-.04-.7C10,23.429,12.872,16.192,18.268,13ZM10,45a1,1,0,0,1-1,1H3a1,1,0,0,1-1-1V31a1,1,0,0,1,1-1H9a1,1,0,0,1,1,1Zm35.966-8.749a.948.948,0,0,1-.421.594l-15.535,7.6a5.457,5.457,0,0,1-2.7.547L12,44.1V33.44A10.645,10.645,0,0,1,18.78,31c3.666,0,3.853,1.814,3.863,2a1,1,0,0,0,1.116.993l5.373-.631a1.2,1.2,0,0,0,.133-.025.589.589,0,0,1,.7.413.675.675,0,0,1-.462.854L19.349,39.085l.807,1.83,8.786-3.881a7.471,7.471,0,0,0,7.3,1.217l8.567-3.2a.86.86,0,0,1,1.026.369A1.057,1.057,0,0,1,45.966,36.251Z"/><circle cx="6" cy="42" r="2"/><path d="M24,25a1,1,0,0,1-1-1H21a3,3,0,0,0,2,2.816V28h2V26.816A2.993,2.993,0,0,0,24,21a1,1,0,1,1,1-1h2a3,3,0,0,0-2-2.816V16H23v1.184A2.993,2.993,0,0,0,24,23a1,1,0,0,1,0,2Z"/></g></svg>